<svg width="210" height="75" viewBox="0 0 210 75" fill="none" xmlns="http://www.w3.org/2000/svg">
<g clip-path="url(#clip0)">
<path d="M37.5469 -3.42967e-06C38.122 0.0431148 38.6955 0.0878299 39.2706 0.126956C40.1243 0.183648 40.9797 0.216386 41.8302 0.296235C42.0446 0.316995 42.4102 0.463118 42.4191 0.577302C42.4484 0.891905 42.0918 0.870346 41.8749 0.912666C40.7864 1.12426 39.6979 1.35423 38.5972 1.49796C37.6728 1.61853 36.8207 1.30552 36.0481 0.812855C35.7354 0.613234 35.7801 0.348935 36.1188 0.189238C36.2358 0.135739 36.3593 0.0926209 36.4803 0.0447118C36.8361 0.030339 37.1919 0.0159663 37.5469 -3.42967e-06Z" fill="url(#paint0_linear)"/>
<path d="M55.2183 36.6665C55.2037 37.5951 54.8747 38.2554 54.1095 38.6148C50.6653 40.2341 47.2146 41.8382 43.759 43.4328C42.7671 43.8904 41.742 43.4735 41.2855 42.4547C40.028 39.6616 38.7779 36.8653 37.5245 34.0706C37.2158 33.3831 36.8998 32.6956 36.5919 32.0073C36.1045 30.9198 36.5131 29.9169 37.6325 29.4641C41.0483 28.0787 44.4633 26.6958 47.8815 25.312C49.1008 24.8177 50.1543 25.1962 50.6913 26.3772C52.1453 29.5727 53.575 32.7794 55.0063 35.9845C55.116 36.2305 55.168 36.502 55.2183 36.6665Z" fill="#E63C2F"/>
<path d="M41.0281 11.8541C42.0297 11.8901 42.7949 12.2167 43.2718 13.0351C44.816 15.6725 46.3561 18.3155 47.8898 20.9593C48.4511 21.9278 48.1083 22.902 47.0572 23.3188C43.5707 24.7066 40.0818 26.0864 36.5913 27.463C35.558 27.8694 34.5313 27.4526 34.069 26.4521C32.7312 23.5512 31.3973 20.6503 30.0676 17.7454C29.5794 16.6818 30.0115 15.6821 31.1179 15.2908C34.1982 14.2001 37.2777 13.1126 40.3596 12.0298C40.5976 11.9444 40.8494 11.9005 41.0281 11.8541Z" fill="url(#paint1_linear)"/>
<path d="M34.5982 63.542C33.586 63.5013 32.8282 63.1652 32.3513 62.3499C30.8152 59.7173 29.2808 57.0863 27.752 54.4521C27.1785 53.4628 27.5189 52.4958 28.5895 52.071C32.0662 50.6888 35.5454 49.3138 39.0253 47.9404C40.0764 47.5268 41.0967 47.9372 41.5687 48.9601C42.9017 51.8506 44.2314 54.7419 45.5571 57.6365C46.0551 58.7184 45.6286 59.7101 44.4987 60.111C41.4298 61.1977 38.3608 62.282 35.2895 63.3616C35.0409 63.4502 34.7785 63.4973 34.5982 63.542Z" fill="url(#paint2_linear)"/>
<path d="M32.0823 28.0367C32.066 28.967 31.6786 29.5714 30.8987 29.9403C27.92 31.3513 24.9437 32.7678 21.9657 34.1803C21.5669 34.3719 21.1704 34.5684 20.7675 34.7488C19.7757 35.1976 18.8107 34.7991 18.4752 33.7803C17.5077 30.8546 16.5484 27.9282 15.5996 24.9977C15.2698 23.9812 15.7653 22.8146 16.7303 22.3084C19.6677 20.7665 22.6074 19.2318 25.5521 17.7043C26.5252 17.1997 27.5853 17.5662 28.0239 18.5579C29.3253 21.5107 30.6144 24.4667 31.9019 27.4251C31.9962 27.6415 32.0376 27.881 32.0823 28.0367Z" fill="url(#paint3_linear)"/>
<path d="M43.5488 47.368C43.5731 46.4114 43.9703 45.8165 44.7502 45.4484C47.3699 44.2108 49.9855 42.9627 52.6036 41.7203C53.3331 41.3729 54.0609 41.024 54.7928 40.6831C55.8708 40.1776 56.8236 40.5753 57.1916 41.6955C58.1339 44.5693 59.0721 47.447 60.0079 50.324C60.3637 51.4187 59.8885 52.5749 58.8585 53.1147C55.9488 54.6374 53.0366 56.1561 50.1228 57.6708C49.0993 58.2026 48.0449 57.8361 47.586 56.7933C46.3058 53.8788 45.0304 50.9644 43.76 48.0451C43.6527 47.7992 43.5983 47.5285 43.5488 47.368Z" fill="url(#paint4_linear)"/>
<path d="M61.0083 20.6764C61.9612 20.6948 62.6719 21.0294 63.0822 21.8103C64.481 24.4685 65.7059 27.2041 66.7644 30.0091C67.1381 30.9993 66.7197 32.0924 65.7734 32.5978C63.5793 33.77 61.382 34.9366 59.1782 36.0928C58.2107 36.5982 57.2026 36.2349 56.7965 35.2336C55.4667 31.9606 54.0224 28.738 52.4563 25.5656C51.9608 24.5611 52.3823 23.6037 53.4611 23.226C55.7819 22.4171 58.1059 21.6147 60.4316 20.8146C60.6387 20.7427 60.8605 20.7116 61.0083 20.6764" fill="url(#paint5_linear)"/>
<path d="M14.6319 54.7197C13.6628 54.7038 12.9512 54.3572 12.5361 53.5643C11.1495 50.9118 9.92291 48.1889 8.87015 45.3934C8.49729 44.4033 8.9067 43.311 9.85305 42.8047C12.0463 41.6294 14.2452 40.4636 16.4474 39.3082C17.4157 38.8003 18.4278 39.1588 18.8332 40.1561C20.163 43.4299 21.6056 46.6534 23.1734 49.825C23.6705 50.8311 23.253 51.7933 22.1783 52.167C19.8567 52.9766 17.5319 53.7799 15.207 54.5808C14.9999 54.6535 14.7789 54.6854 14.6319 54.7197Z" fill="url(#paint6_linear)"/>
<path d="M53.255 9.04925C54.324 9.10116 55.2427 9.46287 55.8649 10.3723C57.3433 12.5386 58.8177 14.7089 60.2758 16.8888C60.4456 17.1427 60.5666 17.4605 60.604 17.7615C60.6795 18.3724 60.3067 18.8986 59.6649 19.1062C57.2085 19.8983 54.7512 20.6864 52.285 21.4505C51.303 21.7548 50.2697 21.3044 49.7222 20.3933C48.1536 17.7823 46.5875 15.1665 45.0213 12.553C45.0108 12.5346 44.9978 12.5163 44.9864 12.4979C44.4665 11.5916 44.8556 10.7221 45.8954 10.5033C46.8831 10.2941 47.8758 10.1049 48.866 9.90683C50.1608 9.64732 51.4549 9.38542 52.7497 9.1291C52.9122 9.09557 53.0771 9.0764 53.255 9.04925" fill="url(#paint7_linear)"/>
<path d="M70.5983 43.5433C70.5447 44.5629 70.2189 45.4413 69.3644 46.0601C67.5026 47.4055 65.6342 48.7438 63.7627 50.0757C63.5693 50.213 63.3468 50.3408 63.1177 50.3998C62.3972 50.5891 61.809 50.213 61.5629 49.4281C61.0934 47.9381 60.6296 46.4457 60.1641 44.955C59.7181 43.5249 59.2697 42.0964 58.8287 40.6671C58.5078 39.6275 58.9172 38.5902 59.8733 38.0481C62.0381 36.8248 64.2062 35.6055 66.3791 34.3918C67.3409 33.8552 68.2954 34.2481 68.5586 35.2829C69.2149 37.878 69.8656 40.4739 70.5154 43.0705C70.5544 43.2286 70.5723 43.3931 70.5983 43.5433Z" fill="url(#paint8_linear)"/>
<path d="M34.9747 3.43723C36.0088 3.47077 36.8268 3.78537 37.4092 4.57587C38.3206 5.81512 39.2337 7.05117 40.1418 8.29282C40.8396 9.24621 40.5626 10.1206 39.4416 10.5054C36.3833 11.5578 33.3241 12.611 30.2657 13.6618C29.1561 14.0435 28.1586 13.6331 27.6631 12.5903C27.0262 11.2448 26.3893 9.90097 25.759 8.55313C25.2334 7.42806 25.6607 6.4555 26.8532 6.05866C29.3445 5.23222 31.8384 4.40739 34.3322 3.58655C34.5612 3.51229 34.8041 3.47556 34.9747 3.43723Z" fill="url(#paint9_linear)"/>
<path d="M60.099 54.538C60.7488 54.5564 61.2662 54.9492 61.4165 55.6263C61.739 57.0772 62.0168 58.5376 62.3539 59.9837C62.5245 60.7159 62.518 61.409 62.1704 62.0853C61.9185 62.5756 61.5579 62.962 61.0632 63.2303C58.7822 64.4728 56.5053 65.7256 54.2243 66.9712C53.0805 67.5956 52.0757 67.2515 51.5705 66.0689C50.9961 64.7227 50.4202 63.3733 49.8483 62.0254C49.3853 60.9363 49.7354 59.9414 50.7817 59.3832C53.641 57.8581 56.5004 56.3354 59.3622 54.8199C59.5929 54.6969 59.8528 54.6306 60.099 54.538Z" fill="url(#paint10_linear)"/>
<path d="M71.5736 51.1047C71.6207 52.2066 71.6662 53.3085 71.715 54.408C71.7377 54.9047 71.5858 55.3007 71.1731 55.6329C69.2918 57.15 67.4398 58.7031 65.5536 60.2122C64.7599 60.8494 63.9362 60.5124 63.7413 59.5016C63.4554 58.0315 63.2076 56.5559 62.9184 55.0875C62.7836 54.3968 62.7462 53.7269 63.0338 53.0626C63.2425 52.5811 63.5423 52.1723 63.9671 51.8513C65.8517 50.4252 67.733 48.9983 69.6168 47.5706C69.6866 47.5179 69.7581 47.4644 69.8328 47.4165C70.5225 46.9917 71.2056 47.272 71.3088 48.0688C71.4217 48.9448 71.4696 49.8319 71.5444 50.7126C71.5557 50.842 71.5566 50.9753 71.5614 51.1047H71.5736Z" fill="url(#paint11_linear)"/>
<path d="M44.3722 9.19432C43.4063 9.18235 42.5542 8.85337 41.932 8.06207C40.9223 6.77491 39.9215 5.47657 38.9248 4.17904C38.2449 3.29511 38.5991 2.49343 39.7233 2.33214C41.6582 2.05506 43.5891 1.75883 45.5257 1.49692C46.1512 1.41228 46.7872 1.39232 47.42 1.38434C47.5946 1.38194 47.8132 1.48734 47.9407 1.6119C48.9658 2.61241 49.9764 3.62489 50.9844 4.64136C51.4271 5.08612 51.8552 5.54604 52.2882 6.00038C52.4011 6.11936 52.5189 6.23913 52.6139 6.37248C53.0981 7.04241 52.8406 7.71234 52.0185 7.87443C51.0933 8.05808 50.1624 8.21059 49.2331 8.37348C47.779 8.6282 46.3258 8.88212 44.871 9.13364C44.7174 9.15999 44.5623 9.17197 44.3722 9.19432Z" fill="url(#paint12_linear)"/>
<path d="M12.8082 21.1459C12.7749 22.0514 12.4727 22.8762 11.7002 23.4687C9.77985 24.9387 7.85142 26.3968 5.91892 27.8524C5.15534 28.4257 4.40557 28.1271 4.33003 27.1936C4.17569 25.2765 4.06115 23.3577 3.94255 21.4382C3.92387 21.1451 3.92793 20.8417 3.99129 20.5566C4.03597 20.3506 4.14726 20.1151 4.30647 19.9809C5.91079 18.6331 7.53055 17.302 9.14706 15.9669C9.46224 15.7066 9.77498 15.4431 10.1048 15.2028C10.896 14.6223 11.6734 14.9329 11.8513 15.8903C12.1575 17.5328 12.4637 19.1752 12.77 20.8193C12.787 20.9151 12.7935 21.0142 12.8082 21.1459Z" fill="url(#paint13_linear)"/>
<path d="M69.6415 30.2473C68.9689 30.2226 68.4385 29.8681 68.1672 29.2093C67.7545 28.2088 67.3857 27.1907 66.9373 26.2054C66.2103 24.6044 65.4394 23.0195 64.6767 21.4329C64.4346 20.9298 64.3607 20.4356 64.6336 19.9269C64.8253 19.5708 65.1275 19.332 65.5109 19.2163C66.2517 18.9887 66.9958 18.7659 67.7472 18.5751C68.6928 18.3315 69.7723 18.7723 70.2256 19.6259C71.371 21.7834 72.3677 24.0112 73.2198 26.2964C73.5601 27.2075 73.1524 28.3006 72.3181 28.8308C71.6845 29.2317 71.0371 29.6149 70.3816 29.983C70.1565 30.1084 69.8901 30.1619 69.6415 30.2473Z" fill="url(#paint14_linear)"/>
<path d="M64.2021 17.7944C63.2825 17.7641 62.5019 17.4383 61.9674 16.659C60.502 14.523 59.0406 12.3831 57.5793 10.2447C57.2698 9.79038 57.295 9.44543 57.7263 9.0957C58.5281 8.44733 59.4322 8.12634 60.4817 8.40421C61.3216 8.62699 62.0681 9.00627 62.6855 9.62829C63.6026 10.5521 64.5343 11.4584 65.4677 12.3647C66.4953 13.3628 67.2905 14.5342 68.0744 15.7127C68.2897 16.0377 68.2572 16.3651 67.9469 16.6254C67.7072 16.8242 67.4213 17.0087 67.1232 17.0941C66.2386 17.3457 65.3401 17.5453 64.4458 17.7633C64.3702 17.78 64.2914 17.7832 64.2021 17.7944Z" fill="url(#paint15_linear)"/>
<path d="M11.4199 57.6056C12.3378 57.6312 13.1168 57.945 13.6448 58.7131C15.1322 60.873 16.6098 63.0401 18.0882 65.2072C18.3701 65.6184 18.3189 65.9778 17.8827 66.3227C17.0826 66.9527 16.1874 67.2689 15.1525 66.9934C14.3126 66.7699 13.5652 66.3922 12.9479 65.7702C12.0243 64.8383 11.0828 63.9264 10.1438 63.0098C9.12593 62.0173 8.33636 60.8563 7.55978 59.6849C7.34777 59.3679 7.36889 59.0533 7.66457 58.801C7.90827 58.5886 8.20232 58.3921 8.50857 58.3059C9.38181 58.0536 10.2713 57.8579 11.1535 57.6439C11.2388 57.6224 11.3289 57.6168 11.4199 57.6056Z" fill="url(#paint16_linear)"/>
<path d="M5.82613 41.5688C5.80339 42.5262 5.46303 43.2832 4.67183 43.811C4.13814 44.1647 3.60039 44.5137 3.06426 44.8626C2.14472 45.4639 0.845017 45.0023 0.635439 43.922C0.404742 42.737 0.261774 41.5305 0.152112 40.328C0.0481353 39.1766 0.0123936 38.0172 0.000208919 36.861C-0.00466497 36.437 0.0757543 35.9858 0.239842 35.597C0.65331 34.6124 1.26336 33.7381 1.96764 32.9284C2.01719 32.8709 2.07242 32.8142 2.12766 32.7631C2.76046 32.1707 3.49723 32.3272 3.75798 33.148C3.98543 33.8667 4.14058 34.6053 4.32173 35.3351C4.79449 37.2419 5.26726 39.1502 5.73515 41.057C5.77983 41.2359 5.80014 41.4203 5.82613 41.5688Z" fill="url(#paint17_linear)"/>
<path d="M75.5546 36.4091C75.5855 37.1301 75.6448 37.8512 75.6351 38.5706C75.631 38.9539 75.5717 39.3595 75.4279 39.7132C75.0071 40.7457 74.3727 41.6551 73.6376 42.4975C73.6238 42.5143 73.6083 42.5303 73.5929 42.5463C73.3126 42.8305 73.0015 43.0685 72.5702 42.9655C72.1128 42.8569 71.9211 42.4896 71.8139 42.0863C71.6336 41.4108 71.4752 40.7297 71.307 40.051C70.8391 38.153 70.3729 36.2542 69.8985 34.3562C69.6288 33.2758 70.039 32.2003 70.9789 31.5759C71.541 31.203 72.1137 30.8468 72.6685 30.4652C73.1217 30.153 73.5726 30.1649 74.0518 30.3901C74.8276 30.7558 75.0851 31.4329 75.1728 32.2027C75.3304 33.6016 75.475 35.0022 75.6261 36.4019C75.6017 36.4043 75.579 36.4075 75.5546 36.4091Z" fill="url(#paint18_linear)"/>
<path d="M32.2481 0.398518C33.1619 0.452016 33.9929 0.760231 34.7346 1.29362C35.0343 1.51001 35.0823 1.83659 34.8126 2.08173C34.5599 2.31329 34.2504 2.52329 33.9271 2.63508C31.3635 3.5174 28.7933 4.38057 26.2183 5.23015C25.9803 5.3092 25.6821 5.30441 25.436 5.24373C24.6741 5.06088 24.0803 4.60893 23.6116 4.00049C23.3622 3.6747 23.3784 3.32577 23.6384 2.96964C23.9584 2.53047 24.4198 2.29812 24.9364 2.16876C27.2377 1.59625 29.5398 1.03012 31.8419 0.462396C31.9711 0.430457 32.1043 0.420077 32.2481 0.398518" fill="url(#paint19_linear)"/>
<path d="M43.4083 75C42.4709 74.9417 41.6391 74.6359 40.8991 74.1001C40.601 73.8837 40.5555 73.5595 40.8235 73.3104C41.0689 73.0844 41.367 72.8776 41.6789 72.7698C44.2515 71.8843 46.8331 71.0172 49.417 70.1644C49.655 70.0869 49.9532 70.0941 50.2001 70.1548C50.9621 70.3376 51.5559 70.7896 52.0229 71.3996C52.2715 71.723 52.2528 72.0751 51.9921 72.4289C51.6704 72.868 51.2098 73.1012 50.6932 73.2282C48.4138 73.7943 46.1336 74.3548 43.8519 74.9162C43.7024 74.9521 43.5497 74.9736 43.4083 75Z" fill="url(#paint20_linear)"/>
<path d="M55.2325 71.2563C54.4901 71.2507 53.404 70.5704 53.201 69.8805C53.127 69.6266 53.1896 69.2952 53.2903 69.0381C53.4674 68.583 53.8532 68.2851 54.2789 68.0536C56.6102 66.788 58.944 65.5263 61.2802 64.2687C61.9333 63.9174 62.6847 64.1386 63.0624 64.7718C63.2306 65.0528 63.2079 65.3371 63.0771 65.619C62.7863 66.241 62.3362 66.74 61.766 67.1161C59.7839 68.4233 57.7922 69.716 55.7987 71.0072C55.629 71.1173 55.4218 71.1748 55.2325 71.2563Z" fill="url(#paint21_linear)"/>
<path d="M13.8841 11.3028C13.2708 11.3068 12.8793 11.0712 12.595 10.6544C12.3318 10.2688 12.4325 9.86952 12.6835 9.55332C13.0483 9.09259 13.4227 8.59993 13.9004 8.27654C15.8442 6.95425 17.8312 5.69424 19.797 4.40229C20.1381 4.17791 20.4915 4.12122 20.8741 4.23381C21.4939 4.41267 21.9805 4.77837 22.342 5.30218C22.5816 5.64952 22.5304 6.00644 22.3558 6.36097C22.1389 6.79934 21.7839 7.10835 21.3574 7.33992C19.0269 8.60392 16.6939 9.86552 14.3577 11.1223C14.1863 11.2158 13.9914 11.2629 13.8841 11.3028Z" fill="url(#paint22_linear)"/>
<path d="M58.1574 7.365C56.9885 7.28196 55.8496 7.06956 54.7887 6.55933C54.5848 6.46112 54.3915 6.31499 54.2339 6.15051C53.4866 5.37438 52.7506 4.58707 52.0203 3.79577C51.8554 3.61931 51.5833 3.4133 51.7588 3.15618C51.9399 2.89109 52.2332 3.07873 52.4541 3.17136C52.7799 3.3071 53.0885 3.48277 53.3996 3.64965C54.9276 4.4673 56.458 5.28575 57.9803 6.11537C58.2207 6.24473 58.4563 6.40363 58.6464 6.59446C58.7601 6.71184 58.873 6.95618 58.821 7.07036C58.7577 7.2077 58.5221 7.27238 58.3548 7.35382C58.3003 7.38017 58.224 7.36181 58.1574 7.365Z" fill="url(#paint23_linear)"/>
<path d="M75.256 43.5394C75.2 43.8627 75.1748 44.0919 75.1204 44.3139C74.6582 46.1871 74.196 48.062 73.7232 49.9352C73.6631 50.1756 73.5697 50.4135 73.4535 50.6331C73.4023 50.7289 73.2431 50.8399 73.1513 50.8247C73.0563 50.8104 72.945 50.6658 72.9125 50.5549C72.8508 50.3584 72.8321 50.1476 72.8142 49.9424C72.7257 48.9523 72.6225 47.963 72.5713 46.972C72.5543 46.6471 72.6396 46.2973 72.7492 45.9843C73.0823 45.0381 73.6078 44.1909 74.2325 43.4036C74.2666 43.3597 74.3016 43.3182 74.3422 43.2814C74.5217 43.1209 74.7215 42.8846 74.9677 43.0435C75.1277 43.1497 75.1854 43.4092 75.256 43.5394Z" fill="url(#paint24_linear)"/>
<path d="M64.3096 63.8399C64.4899 62.964 64.8205 62.0752 65.6101 61.446C66.4574 60.7745 67.3355 60.1437 68.2079 59.5041C68.3825 59.3756 68.5978 59.1408 68.8058 59.3468C68.8805 59.4203 68.7684 59.7668 68.6498 59.9169C67.8675 60.9095 67.0642 61.8852 66.2567 62.8578C65.9635 63.2107 65.6532 63.5564 65.325 63.8774C65.1723 64.0275 64.9676 64.1377 64.7653 64.2216C64.5127 64.3246 64.3291 64.184 64.3096 63.8399Z" fill="url(#paint25_linear)"/>
<path d="M111.743 27.7622L110.016 31.8489C109.888 32.2114 109.625 32.8686 109.209 33.8611L108.797 34.8887L95.1354 2.18036H86.5395V42.1917H92.0104L92.0088 8.62494L106.284 42.1917H111.426L125.082 9.59989L125.641 8.24805V42.1917H131.113V2.18036H122.4L111.743 27.7622Z" fill="url(#paint26_linear)"/>
<path d="M146.826 29.6352L154.826 7.70563L162.929 29.6352H146.826ZM151.245 2.18011L136.336 42.1922H142.135L145.188 33.9279H164.598L167.684 42.1922H173.428L158.219 2.18011H151.245V2.18011Z" fill="url(#paint27_linear)"/>
<path d="M202.517 20.8636C201.359 21.6933 198.584 22.1141 194.269 22.1141H184.147V6.87337H195.686L197.41 6.90291C201.139 6.90291 202.529 7.62235 203.039 8.226C203.563 8.84962 204.189 10.544 204.189 15.0802C204.189 18.1232 203.628 20.0683 202.517 20.8636ZM206.877 4.88035C205.135 3.06379 202.021 2.18147 197.353 2.18147H178.674V42.192H184.147V26.8068L195.122 26.8052L196.859 26.778C201.713 26.778 204.951 25.938 206.76 24.2093C208.575 22.4774 209.457 19.3793 209.457 14.7353C209.457 9.91081 208.614 6.68652 206.877 4.88035" fill="url(#paint28_linear)"/>
<path d="M98.3721 65.6973L94.1132 53.0805L89.9249 65.6973H98.3721ZM99.4558 69.0861H88.8226L87.2889 73.7349H82.3427L90.539 49.5144H97.5598L105.881 73.7349H101.026L99.4558 69.0861V69.0861Z" fill="url(#paint29_linear)"/>
<path d="M98.3721 65.6973L94.1132 53.0805L89.9249 65.6973H98.3721ZM99.4558 69.0861H88.8226L87.2889 73.7349H82.3427L90.539 49.5144H97.5598L105.881 73.7349H101.026L99.4558 69.0861V69.0861Z" fill="url(#paint30_linear)"/>
<path d="M123.968 65.0937H128.663V65.9274C128.663 69.2994 128.038 71.4784 126.786 72.4662C125.535 73.4547 122.766 73.9482 118.482 73.9482C113.619 73.9482 110.63 73.1672 109.509 71.6054C108.391 70.0444 107.832 65.8691 107.832 59.0787C107.832 55.0791 108.59 52.4505 110.105 51.1905C111.622 49.9313 114.792 49.3021 119.619 49.3021C123.134 49.3021 125.479 49.8187 126.66 50.8543C127.838 51.8892 128.429 53.9445 128.429 57.0195L128.446 57.5696H123.753V56.9492C123.753 55.3634 123.448 54.3501 122.842 53.9062C122.234 53.4622 120.846 53.2402 118.679 53.2402C115.78 53.2402 114.039 53.5892 113.455 54.287C112.871 54.9857 112.579 57.0546 112.579 60.4985C112.579 65.1345 112.84 67.8797 113.364 68.7324C113.889 69.5828 115.582 70.0092 118.446 70.0092C120.769 70.0092 122.275 69.7713 122.968 69.2994C123.66 68.8275 124.005 67.7846 124.005 66.1749L123.968 65.0937Z" fill="url(#paint31_linear)"/>
<path d="M123.968 65.0937H128.663V65.9274C128.663 69.2994 128.038 71.4784 126.786 72.4662C125.535 73.4547 122.766 73.9482 118.482 73.9482C113.619 73.9482 110.63 73.1672 109.509 71.6054C108.391 70.0444 107.832 65.8691 107.832 59.0787C107.832 55.0791 108.59 52.4505 110.105 51.1905C111.622 49.9313 114.792 49.3021 119.619 49.3021C123.134 49.3021 125.479 49.8187 126.66 50.8543C127.838 51.8892 128.429 53.9445 128.429 57.0195L128.446 57.5696H123.753V56.9492C123.753 55.3634 123.448 54.3501 122.842 53.9062C122.234 53.4622 120.846 53.2402 118.679 53.2402C115.78 53.2402 114.039 53.5892 113.455 54.287C112.871 54.9857 112.579 57.0546 112.579 60.4985C112.579 65.1345 112.84 67.8797 113.364 68.7324C113.889 69.5828 115.582 70.0092 118.446 70.0092C120.769 70.0092 122.275 69.7713 122.968 69.2994C123.66 68.8275 124.005 67.7846 124.005 66.1749L123.968 65.0937Z" fill="url(#paint32_linear)"/>
<path d="M142.164 53.6312V73.7347H137.489V53.6312H130.376V49.5142H149.529V53.6312H142.164Z" fill="url(#paint33_linear)"/>
<path d="M142.164 53.6312V73.7347H137.489V53.6312H130.376V49.5142H149.529V53.6312H142.164Z" fill="url(#paint34_linear)"/>
<path d="M157.308 73.735H152.634V49.5146H157.308V73.735Z" fill="url(#paint35_linear)"/>
<path d="M157.308 73.735H152.634V49.5146H157.308V73.735Z" fill="url(#paint36_linear)"/>
<path d="M172.291 53.2405C169.15 53.2405 167.315 53.6365 166.785 54.4294C166.254 55.2207 165.991 57.9667 165.991 62.6626C165.991 66.1408 166.301 68.2328 166.921 68.9435C167.54 69.6541 169.366 70.0095 172.399 70.0095C175.299 70.0095 177.04 69.6094 177.616 68.8101C178.196 68.0133 178.483 65.5898 178.483 61.5439C178.483 57.486 178.209 55.089 177.662 54.3496C177.114 53.6094 175.323 53.2405 172.291 53.2405ZM172.651 49.3015C177.128 49.3015 180.011 50.0314 181.299 51.4926C182.588 52.953 183.23 56.2204 183.23 61.2964C183.23 66.8443 182.583 70.3392 181.29 71.7829C179.996 73.2274 176.865 73.9484 171.894 73.9484C167.418 73.9484 164.523 73.2345 163.21 71.8093C161.9 70.384 161.244 67.2459 161.244 62.3967C161.244 56.6229 161.887 52.9961 163.175 51.5205C164.462 50.0401 167.622 49.3015 172.651 49.3015" fill="url(#paint37_linear)"/>
<path d="M172.291 53.2405C169.15 53.2405 167.315 53.6365 166.785 54.4294C166.254 55.2207 165.991 57.9667 165.991 62.6626C165.991 66.1408 166.301 68.2328 166.921 68.9435C167.54 69.6541 169.366 70.0095 172.399 70.0095C175.299 70.0095 177.04 69.6094 177.616 68.8101C178.196 68.0133 178.483 65.5898 178.483 61.5439C178.483 57.486 178.209 55.089 177.662 54.3496C177.114 53.6094 175.323 53.2405 172.291 53.2405ZM172.651 49.3015C177.128 49.3015 180.011 50.0314 181.299 51.4926C182.588 52.953 183.23 56.2204 183.23 61.2964C183.23 66.8443 182.583 70.3392 181.29 71.7829C179.996 73.2274 176.865 73.9484 171.894 73.9484C167.418 73.9484 164.523 73.2345 163.21 71.8093C161.9 70.384 161.244 67.2459 161.244 62.3967C161.244 56.6229 161.887 52.9961 163.175 51.5205C164.462 50.0401 167.622 49.3015 172.651 49.3015" fill="url(#paint38_linear)"/>
<path d="M210 49.5139V73.7344H202.076L195.036 60.4444C194.687 59.7825 194.14 58.6215 193.394 56.9662L192.599 55.2263L191.824 53.4888H191.643L191.714 55.0866L191.77 56.6652L191.804 59.8408V73.7344H187.129V49.5139H195.055L201.462 61.7946C202.028 62.8814 202.683 64.2005 203.429 65.7495L204.368 67.7194L205.307 69.706H205.47L205.416 68.1458L205.362 66.584L205.325 63.4611V49.5139H210Z" fill="url(#paint39_linear)"/>
<path d="M210 49.5139V73.7344H202.076L195.036 60.4444C194.687 59.7825 194.14 58.6215 193.394 56.9662L192.599 55.2263L191.824 53.4888H191.643L191.714 55.0866L191.77 56.6652L191.804 59.8408V73.7344H187.129V49.5139H195.055L201.462 61.7946C202.028 62.8814 202.683 64.2005 203.429 65.7495L204.368 67.7194L205.307 69.706H205.47L205.416 68.1458L205.362 66.584L205.325 63.4611V49.5139H210Z" fill="url(#paint40_linear)"/>
</g>
<defs>
<linearGradient id="paint0_linear" x1="35.8373" y1="0.761913" x2="42.4208" y2="0.761913" gradientUnits="userSpaceOnUse">
<stop stop-color="white"/>
</linearGradient>
<linearGradient id="paint1_linear" x1="29.8685" y1="19.7357" x2="48.1573" y2="19.7357" gradientUnits="userSpaceOnUse">
<stop stop-color="white"/>
</linearGradient>
<linearGradient id="paint2_linear" x1="27.4761" y1="55.6616" x2="45.7628" y2="55.6616" gradientUnits="userSpaceOnUse">
<stop stop-color="white"/>
</linearGradient>
<linearGradient id="paint3_linear" x1="15.4977" y1="26.2051" x2="32.0823" y2="26.2051" gradientUnits="userSpaceOnUse">
<stop stop-color="white"/>
</linearGradient>
<linearGradient id="paint4_linear" x1="43.5488" y1="49.1899" x2="60.125" y2="49.1899" gradientUnits="userSpaceOnUse">
<stop stop-color="white"/>
</linearGradient>
<linearGradient id="paint5_linear" x1="52.25" y1="28.4979" x2="66.9003" y2="28.4979" gradientUnits="userSpaceOnUse">
<stop stop-color="white"/>
</linearGradient>
<linearGradient id="paint6_linear" x1="8.73334" y1="46.8993" x2="23.3815" y2="46.8993" gradientUnits="userSpaceOnUse">
<stop stop-color="white"/>
</linearGradient>
<linearGradient id="paint7_linear" x1="44.7569" y1="15.2972" x2="60.6136" y2="15.2972" gradientUnits="userSpaceOnUse">
<stop stop-color="white"/>
</linearGradient>
<linearGradient id="paint8_linear" x1="58.7209" y1="42.3001" x2="70.5983" y2="42.3001" gradientUnits="userSpaceOnUse">
<stop stop-color="white"/>
</linearGradient>
<linearGradient id="paint9_linear" x1="25.5375" y1="8.61966" x2="40.5227" y2="8.61966" gradientUnits="userSpaceOnUse">
<stop stop-color="white"/>
</linearGradient>
<linearGradient id="paint10_linear" x1="49.6478" y1="60.9078" x2="62.4632" y2="60.9078" gradientUnits="userSpaceOnUse">
<stop stop-color="white"/>
</linearGradient>
<linearGradient id="paint11_linear" x1="62.8163" y1="53.8776" x2="71.7172" y2="53.8776" gradientUnits="userSpaceOnUse">
<stop stop-color="white"/>
</linearGradient>
<linearGradient id="paint12_linear" x1="38.5795" y1="5.28931" x2="52.8575" y2="5.28931" gradientUnits="userSpaceOnUse">
<stop stop-color="white"/>
</linearGradient>
<linearGradient id="paint13_linear" x1="3.9328" y1="21.5271" x2="12.8082" y2="21.5271" gradientUnits="userSpaceOnUse">
<stop stop-color="white"/>
</linearGradient>
<linearGradient id="paint14_linear" x1="64.4595" y1="24.3779" x2="73.34" y2="24.3779" gradientUnits="userSpaceOnUse">
<stop stop-color="white"/>
</linearGradient>
<linearGradient id="paint15_linear" x1="57.3712" y1="13.0491" x2="68.2123" y2="13.0491" gradientUnits="userSpaceOnUse">
<stop stop-color="white"/>
</linearGradient>
<linearGradient id="paint16_linear" x1="7.41885" y1="62.3495" x2="18.2634" y2="62.3495" gradientUnits="userSpaceOnUse">
<stop stop-color="white"/>
</linearGradient>
<linearGradient id="paint17_linear" x1="0" y1="38.7675" x2="5.82613" y2="38.7675" gradientUnits="userSpaceOnUse">
<stop stop-color="white"/>
</linearGradient>
<linearGradient id="paint18_linear" x1="69.817" y1="36.6077" x2="75.6361" y2="36.6077" gradientUnits="userSpaceOnUse">
<stop stop-color="white"/>
</linearGradient>
<linearGradient id="paint19_linear" x1="23.4336" y1="2.84396" x2="34.9897" y2="2.84396" gradientUnits="userSpaceOnUse">
<stop stop-color="white"/>
</linearGradient>
<linearGradient id="paint20_linear" x1="40.6466" y1="72.5539" x2="52.199" y2="72.5539" gradientUnits="userSpaceOnUse">
<stop stop-color="white"/>
</linearGradient>
<linearGradient id="paint21_linear" x1="53.1686" y1="67.6792" x2="63.1819" y2="67.6792" gradientUnits="userSpaceOnUse">
<stop stop-color="white"/>
</linearGradient>
<linearGradient id="paint22_linear" x1="12.4401" y1="7.74022" x2="22.5045" y2="7.74022" gradientUnits="userSpaceOnUse">
<stop stop-color="white"/>
</linearGradient>
<linearGradient id="paint23_linear" x1="51.702" y1="5.19416" x2="58.8341" y2="5.19416" gradientUnits="userSpaceOnUse">
<stop stop-color="white"/>
</linearGradient>
<linearGradient id="paint24_linear" x1="72.5692" y1="46.9085" x2="75.256" y2="46.9085" gradientUnits="userSpaceOnUse">
<stop stop-color="white"/>
</linearGradient>
<linearGradient id="paint25_linear" x1="64.3096" y1="61.76" x2="68.8299" y2="61.76" gradientUnits="userSpaceOnUse">
<stop stop-color="white"/>
</linearGradient>
<linearGradient id="paint26_linear" x1="86.5395" y1="22.186" x2="131.113" y2="22.186" gradientUnits="userSpaceOnUse">
<stop stop-color="white"/>
</linearGradient>
<linearGradient id="paint27_linear" x1="136.336" y1="22.1862" x2="173.428" y2="22.1862" gradientUnits="userSpaceOnUse">
<stop stop-color="white"/>
</linearGradient>
<linearGradient id="paint28_linear" x1="178.674" y1="22.1867" x2="209.457" y2="22.1867" gradientUnits="userSpaceOnUse">
<stop stop-color="white"/>
</linearGradient>
<linearGradient id="paint29_linear" x1="82.3427" y1="61.6247" x2="105.881" y2="61.6247" gradientUnits="userSpaceOnUse">
<stop stop-color="white"/>
</linearGradient>
<linearGradient id="paint30_linear" x1="82.3427" y1="61.6247" x2="105.881" y2="61.6247" gradientUnits="userSpaceOnUse">
<stop stop-color="white"/>
</linearGradient>
<linearGradient id="paint31_linear" x1="420.663" y1="-252.534" x2="441.494" y2="-252.534" gradientUnits="userSpaceOnUse">
<stop stop-color="white"/>
</linearGradient>
<linearGradient id="paint32_linear" x1="420.663" y1="-252.534" x2="441.494" y2="-252.534" gradientUnits="userSpaceOnUse">
<stop stop-color="white"/>
</linearGradient>
<linearGradient id="paint33_linear" x1="130.376" y1="61.6244" x2="149.529" y2="61.6244" gradientUnits="userSpaceOnUse">
<stop stop-color="white"/>
</linearGradient>
<linearGradient id="paint34_linear" x1="130.376" y1="61.6244" x2="149.529" y2="61.6244" gradientUnits="userSpaceOnUse">
<stop stop-color="white"/>
</linearGradient>
<linearGradient id="paint35_linear" x1="152.634" y1="61.6248" x2="157.308" y2="61.6248" gradientUnits="userSpaceOnUse">
<stop stop-color="white"/>
</linearGradient>
<linearGradient id="paint36_linear" x1="152.634" y1="61.6248" x2="157.308" y2="61.6248" gradientUnits="userSpaceOnUse">
<stop stop-color="white"/>
</linearGradient>
<linearGradient id="paint37_linear" x1="522.397" y1="-264.387" x2="571.153" y2="-264.387" gradientUnits="userSpaceOnUse">
<stop stop-color="white"/>
</linearGradient>
<linearGradient id="paint38_linear" x1="522.397" y1="-264.387" x2="571.153" y2="-264.387" gradientUnits="userSpaceOnUse">
<stop stop-color="white"/>
</linearGradient>
<linearGradient id="paint39_linear" x1="560.106" y1="-268.114" x2="608.862" y2="-268.114" gradientUnits="userSpaceOnUse">
<stop stop-color="white"/>
</linearGradient>
<linearGradient id="paint40_linear" x1="560.106" y1="-268.114" x2="608.862" y2="-268.114" gradientUnits="userSpaceOnUse">
<stop stop-color="white"/>
</linearGradient>
<clipPath id="clip0">
<rect width="210" height="75" fill="white"/>
</clipPath>
</defs>
</svg>
